0
SECTION
2
HEADER
9
$ACADVER
1
AC1024
9
$INSBASE
10
0.0000000000000000
20
0.0000000000000000
30
0.0000000000000000
9
$INSUNITS
70
0
9
$LUNITS
70
2
9
$EXTMIN
10
0.0000000000000000
20
0.0000000000000000
30
0.0000000000000000
9
$EXTMAX
10
0.0000000000000000
20
0.0000000000000000
30
0.0000000000000000
9
$LTSCALE
40
1.0000000000000000
9
$HANDSEED
5
73
0
ENDSEC
0
SECTION
2
CLASSES
0
ENDSEC
0
SECTION
2
TABLES
0
TABLE
2
VPORT
5
1
100
AcDbSymbolTable
70
0
0
ENDTAB
0
TABLE
2
LTYPE
5
2
100
AcDbSymbolTable
70
5
0
LTYPE
5
3
330
2
100
AcDbSymbolTableRecord
100
AcDbLinetypeTableRecord
2
ByLayer
70
0
3

72
65
73
0
40
0.0000000000000000
0
LTYPE
5
4
330
2
100
AcDbSymbolTableRecord
100
AcDbLinetypeTableRecord
2
ByBlock
70
0
3

72
65
73
0
40
0.0000000000000000
0
LTYPE
5
5
330
2
100
AcDbSymbolTableRecord
100
AcDbLinetypeTableRecord
2
Continuous
70
0
3
Solid Line
72
65
73
0
40
0.0000000000000000
0
LTYPE
5
6
330
2
100
AcDbSymbolTableRecord
100
AcDbLinetypeTableRecord
2
HIDDEN
70
0
3
Hidden __ __ __ __ __ __ __ __ __ __ __ __ __ _
72
65
73
2
40
0.3750000000000000
49
0.2500000000000000
74
0
49
-0.1250000000000000
74
0
0
LTYPE
5
7
330
2
100
AcDbSymbolTableRecord
100
AcDbLinetypeTableRecord
2
DASHDOT
70
0
3
Dash dot __ . __ . __ . __ . __ . __ . __ . __
72
65
73
4
40
1.0000000000000000
49
0.5000000000000000
74
0
49
-0.2500000000000000
74
0
49
0.0000000000000000
74
0
49
-0.2500000000000000
74
0
0
ENDTAB
0
TABLE
2
LAYER
5
8
100
AcDbSymbolTable
70
1
0
LAYER
5
9
330
8
100
AcDbSymbolTableRecord
100
AcDbLayerTableRecord
2
0
70
0
62
7
6
Continuous
370
-3
390
71
0
ENDTAB
0
TABLE
2
STYLE
5
A
100
AcDbSymbolTable
70
1
0
STYLE
5
B
330
A
100
AcDbSymbolTableRecord
100
AcDbTextStyleTableRecord
2
Standard
70
0
40
0.0000000000000000
41
1.0000000000000000
50
0.0000000000000000
71
0
42
100.0000000000000000
3
arial.ttf
4

0
ENDTAB
0
TABLE
2
VIEW
5
C
100
AcDbSymbolTable
70
0
0
ENDTAB
0
TABLE
2
UCS
5
D
100
AcDbSymbolTable
70
0
0
ENDTAB
0
TABLE
2
APPID
5
E
100
AcDbSymbolTable
70
1
0
APPID
5
F
330
E
100
AcDbSymbolTableRecord
100
AcDbRegAppTableRecord
2
ACAD
70
0
0
ENDTAB
0
TABLE
2
DIMSTYLE
5
10
100
AcDbSymbolTable
70
0
100
AcDbDimStyleTable
71
0
0
ENDTAB
0
TABLE
2
BLOCK_RECORD
5
11
100
AcDbSymbolTable
70
3
0
BLOCK_RECORD
5
12
330
11
100
AcDbSymbolTableRecord
100
AcDbBlockTableRecord
2
*Model_Space
70
0
280
1
281
0
0
BLOCK_RECORD
5
13
330
11
100
AcDbSymbolTableRecord
100
AcDbBlockTableRecord
2
*Paper_Space
70
0
280
1
281
0
0
BLOCK_RECORD
5
14
330
11
100
AcDbSymbolTableRecord
100
AcDbBlockTableRecord
2
*Paper_Space0
70
0
280
1
281
0
0
ENDTAB
0
ENDSEC
0
SECTION
2
BLOCKS
0
BLOCK
5
15
100
AcDbEntity
8
0
100
AcDbBlockBegin
2
*Model_Space
70
0
10
0.0000000000000000
20
0.0000000000000000
30
0.0000000000000000
3
*Model_Space
1

0
ENDBLK
5
16
100
AcDbEntity
8
0
100
AcDbBlockEnd
0
BLOCK
5
17
100
AcDbEntity
8
0
100
AcDbBlockBegin
2
*Paper_Space
70
0
10
0.0000000000000000
20
0.0000000000000000
30
0.0000000000000000
3
*Paper_Space
1

0
ENDBLK
5
18
100
AcDbEntity
8
0
100
AcDbBlockEnd
0
BLOCK
5
19
100
AcDbEntity
8
0
100
AcDbBlockBegin
2
*Paper_Space0
70
0
10
0.0000000000000000
20
0.0000000000000000
30
0.0000000000000000
3
*Paper_Space0
1

0
ENDBLK
5
1A
100
AcDbEntity
8
0
100
AcDbBlockEnd
0
ENDSEC
0
SECTION
2
ENTITIES
0
LINE
5
1B
100
AcDbEntity
8
0
100
AcDbLine
10
0.0000000000000000
20
-50.0000000000000000
30
0.0000000000000000
11
0.0000000000000000
21
-54.0000000000000000
31
0.0000000000000000
0
LINE
5
1C
100
AcDbEntity
8
0
100
AcDbLine
10
0.0000000000000000
20
-50.0000000000000000
30
0.0000000000000000
11
0.0000000000000000
21
-54.0000000000000000
31
0.0000000000000000
0
LINE
5
1D
100
AcDbEntity
8
0
100
AcDbLine
10
0.0000000000000000
20
-54.0000000000000000
30
0.0000000000000000
11
65.0000000000000000
21
-54.0000000000000000
31
0.0000000000000000
0
LINE
5
1E
100
AcDbEntity
8
0
100
AcDbLine
10
95.0000000000000000
20
-54.0000000000000000
30
0.0000000000000000
11
175.0000000000000000
21
-54.0000000000000000
31
0.0000000000000000
0
TEXT
5
1F
100
AcDbEntity
8
0
100
AcDbText
10
5.0000000000000000
20
-50.0000000000000000
30
0.0000000000000000
40
2.0000000000000000
50
0.0000000000000000
41
1.0000000000000000
51
0.0000000000000000
1

7
Standard
100
AcDbText
0
TEXT
5
20
100
AcDbEntity
8
0
100
AcDbText
10
10.0000000000000000
20
-53.0000000000000000
30
0.0000000000000000
40
2.0000000000000000
50
0.0000000000000000
41
1.0000000000000000
51
0.0000000000000000
1
0.40
7
Standard
100
AcDbText
0
TEXT
5
21
100
AcDbEntity
8
0
100
AcDbText
10
20.0000000000000000
20
-53.0000000000000000
30
0.0000000000000000
40
2.0000000000000000
50
0.0000000000000000
41
1.0000000000000000
51
0.0000000000000000
1
0.40
7
Standard
100
AcDbText
0
TEXT
5
22
100
AcDbEntity
8
0
100
AcDbText
10
30.0000000000000000
20
-53.0000000000000000
30
0.0000000000000000
40
2.0000000000000000
50
0.0000000000000000
41
1.0000000000000000
51
0.0000000000000000
1
73.40
7
Standard
100
AcDbText
0
TEXT
5
23
100
AcDbEntity
8
0
100
AcDbText
10
85.0000000000000000
20
-55.0000000000000000
30
0.0000000000000000
40
2.0000000000000000
50
0.0000000000000000
41
1.0000000000000000
51
0.0000000000000000
1

7
Standard
100
AcDbText
0
TEXT
5
24
100
AcDbEntity
8
0
100
AcDbText
10
100.0000000000000000
20
-55.0000000000000000
30
0.0000000000000000
40
2.0000000000000000
50
0.0000000000000000
41
1.0000000000000000
51
0.0000000000000000
1
прс
7
Standard
100
AcDbText
0
TEXT
5
25
100
AcDbEntity
8
0
100
AcDbText
10
110.0000000000000000
20
-55.0000000000000000
30
0.0000000000000000
40
2.0000000000000000
50
0.0000000000000000
41
1.0000000000000000
51
0.0000000000000000
1

7
Standard
100
AcDbText
0
LINE
5
26
100
AcDbEntity
8
0
100
AcDbLine
10
0.0000000000000000
20
-54.0000000000000000
30
0.0000000000000000
11
0.0000000000000000
21
-150.0000000000000000
31
0.0000000000000000
0
LINE
5
27
100
AcDbEntity
8
0
100
AcDbLine
10
0.0000000000000000
20
-54.0000000000000000
30
0.0000000000000000
11
0.0000000000000000
21
-150.0000000000000000
31
0.0000000000000000
0
LINE
5
28
100
AcDbEntity
8
0
100
AcDbLine
10
0.0000000000000000
20
-150.0000000000000000
30
0.0000000000000000
11
65.0000000000000000
21
-150.0000000000000000
31
0.0000000000000000
0
LINE
5
29
100
AcDbEntity
8
0
100
AcDbLine
10
95.0000000000000000
20
-150.0000000000000000
30
0.0000000000000000
11
175.0000000000000000
21
-150.0000000000000000
31
0.0000000000000000
0
TEXT
5
2A
100
AcDbEntity
8
0
100
AcDbText
10
5.0000000000000000
20
-54.0000000000000000
30
0.0000000000000000
40
2.0000000000000000
50
0.0000000000000000
41
1.0000000000000000
51
0.0000000000000000
1

7
Standard
100
AcDbText
0
TEXT
5
2B
100
AcDbEntity
8
0
100
AcDbText
10
10.0000000000000000
20
-149.0000000000000000
30
0.0000000000000000
40
2.0000000000000000
50
0.0000000000000000
41
1.0000000000000000
51
0.0000000000000000
1
9.60
7
Standard
100
AcDbText
0
TEXT
5
2C
100
AcDbEntity
8
0
100
AcDbText
10
20.0000000000000000
20
-149.0000000000000000
30
0.0000000000000000
40
2.0000000000000000
50
0.0000000000000000
41
1.0000000000000000
51
0.0000000000000000
1
10.00
7
Standard
100
AcDbText
0
TEXT
5
2D
100
AcDbEntity
8
0
100
AcDbText
10
30.0000000000000000
20
-149.0000000000000000
30
0.0000000000000000
40
2.0000000000000000
50
0.0000000000000000
41
1.0000000000000000
51
0.0000000000000000
1
63.40
7
Standard
100
AcDbText
0
TEXT
5
2E
100
AcDbEntity
8
0
100
AcDbText
10
85.0000000000000000
20
-59.0000000000000000
30
0.0000000000000000
40
2.0000000000000000
50
0.0000000000000000
41
1.0000000000000000
51
0.0000000000000000
1

7
Standard
100
AcDbText
0
TEXT
5
2F
100
AcDbEntity
8
0
100
AcDbText
10
100.0000000000000000
20
-59.0000000000000000
30
0.0000000000000000
40
2.0000000000000000
50
0.0000000000000000
41
1.0000000000000000
51
0.0000000000000000
1
2б
7
Standard
100
AcDbText
0
TEXT
5
30
100
AcDbEntity
8
0
100
AcDbText
10
110.0000000000000000
20
-59.0000000000000000
30
0.0000000000000000
40
2.0000000000000000
50
0.0000000000000000
41
1.0000000000000000
51
0.0000000000000000
1
Суглинок коричневый и светло-коричневый. В интервале 2,8-3,0 м прослой песка мелкого водонасыщенного.
7
Standard
100
AcDbText
0
LINE
5
31
100
AcDbEntity
8
0
100
AcDbLine
10
0.0000000000000000
20
0.0000000000000000
30
0.0000000000000000
11
175.0000000000000000
21
0.0000000000000000
31
0.0000000000000000
0
LINE
5
32
100
AcDbEntity
8
0
100
AcDbLine
10
0.0000000000000000
20
-50.0000000000000000
30
0.0000000000000000
11
175.0000000000000000
21
-50.0000000000000000
31
0.0000000000000000
0
LINE
5
33
100
AcDbEntity
8
0
100
AcDbLine
10
0.0000000000000000
20
-150.0000000000000000
30
0.0000000000000000
11
175.0000000000000000
21
-150.0000000000000000
31
0.0000000000000000
0
TEXT
5
34
100
AcDbEntity
8
0
100
AcDbText
10
5.0000000000000000
20
-45.0000000000000000
30
0.0000000000000000
40
2.0000000000000000
50
90.0000000000000000
41
1.0000000000000000
51
0.0000000000000000
1
Геоиндекс
7
Standard
100
AcDbText
0
LINE
5
35
100
AcDbEntity
8
0
100
AcDbLine
10
0.0000000000000000
20
0.0000000000000000
30
0.0000000000000000
11
0.0000000000000000
21
-150.0000000000000000
31
0.0000000000000000
0
TEXT
5
36
100
AcDbEntity
8
0
100
AcDbText
10
15.0000000000000000
20
-45.0000000000000000
30
0.0000000000000000
40
2.0000000000000000
50
90.0000000000000000
41
1.0000000000000000
51
0.0000000000000000
1
Мощность, м
7
Standard
100
AcDbText
0
LINE
5
37
100
AcDbEntity
8
0
100
AcDbLine
10
10.0000000000000000
20
0.0000000000000000
30
0.0000000000000000
11
10.0000000000000000
21
-150.0000000000000000
31
0.0000000000000000
0
TEXT
5
38
100
AcDbEntity
8
0
100
AcDbText
10
25.0000000000000000
20
-45.0000000000000000
30
0.0000000000000000
40
2.0000000000000000
50
90.0000000000000000
41
1.0000000000000000
51
0.0000000000000000
1
Глубина, м
7
Standard
100
AcDbText
0
LINE
5
39
100
AcDbEntity
8
0
100
AcDbLine
10
20.0000000000000000
20
0.0000000000000000
30
0.0000000000000000
11
20.0000000000000000
21
-150.0000000000000000
31
0.0000000000000000
0
TEXT
5
3A
100
AcDbEntity
8
0
100
AcDbText
10
35.0000000000000000
20
-45.0000000000000000
30
0.0000000000000000
40
2.0000000000000000
50
90.0000000000000000
41
1.0000000000000000
51
0.0000000000000000
1
Абс. отметка, м
7
Standard
100
AcDbText
0
LINE
5
3B
100
AcDbEntity
8
0
100
AcDbLine
10
30.0000000000000000
20
0.0000000000000000
30
0.0000000000000000
11
30.0000000000000000
21
-150.0000000000000000
31
0.0000000000000000
0
TEXT
5
3C
100
AcDbEntity
8
0
100
AcDbText
10
45.0000000000000000
20
-45.0000000000000000
30
0.0000000000000000
40
2.0000000000000000
50
90.0000000000000000
41
1.0000000000000000
51
0.0000000000000000
1
Геолого-литологический разрез
7
Standard
100
AcDbText
0
LINE
5
3D
100
AcDbEntity
8
0
100
AcDbLine
10
40.0000000000000000
20
0.0000000000000000
30
0.0000000000000000
11
40.0000000000000000
21
-150.0000000000000000
31
0.0000000000000000
0
TEXT
5
3E
100
AcDbEntity
8
0
100
AcDbText
10
70.0000000000000000
20
-45.0000000000000000
30
0.0000000000000000
40
2.0000000000000000
50
90.0000000000000000
41
1.0000000000000000
51
0.0000000000000000
1
Сведения о воде
7
Standard
100
AcDbText
0
LINE
5
3F
100
AcDbEntity
8
0
100
AcDbLine
10
65.0000000000000000
20
0.0000000000000000
30
0.0000000000000000
11
65.0000000000000000
21
-150.0000000000000000
31
0.0000000000000000
0
TEXT
5
40
100
AcDbEntity
8
0
100
AcDbText
10
85.0000000000000000
20
-45.0000000000000000
30
0.0000000000000000
40
2.0000000000000000
50
90.0000000000000000
41
1.0000000000000000
51
0.0000000000000000
1
Сведения о пробах
7
Standard
100
AcDbText
0
LINE
5
41
100
AcDbEntity
8
0
100
AcDbLine
10
80.0000000000000000
20
0.0000000000000000
30
0.0000000000000000
11
80.0000000000000000
21
-150.0000000000000000
31
0.0000000000000000
0
TEXT
5
42
100
AcDbEntity
8
0
100
AcDbText
10
100.0000000000000000
20
-45.0000000000000000
30
0.0000000000000000
40
2.0000000000000000
50
90.0000000000000000
41
1.0000000000000000
51
0.0000000000000000
1
ИГЭ
7
Standard
100
AcDbText
0
LINE
5
43
100
AcDbEntity
8
0
100
AcDbLine
10
95.0000000000000000
20
0.0000000000000000
30
0.0000000000000000
11
95.0000000000000000
21
-150.0000000000000000
31
0.0000000000000000
0
TEXT
5
44
100
AcDbEntity
8
0
100
AcDbText
10
110.0000000000000000
20
-45.0000000000000000
30
0.0000000000000000
40
2.0000000000000000
50
90.0000000000000000
41
1.0000000000000000
51
0.0000000000000000
1
Наименование и характеристика пород
7
Standard
100
AcDbText
0
LINE
5
45
100
AcDbEntity
8
0
100
AcDbLine
10
105.0000000000000000
20
0.0000000000000000
30
0.0000000000000000
11
105.0000000000000000
21
-150.0000000000000000
31
0.0000000000000000
0
TEXT
5
46
100
AcDbEntity
8
0
100
AcDbText
10
180.0000000000000000
20
-45.0000000000000000
30
0.0000000000000000
40
2.0000000000000000
50
90.0000000000000000
41
1.0000000000000000
51
0.0000000000000000
1

7
Standard
100
AcDbText
0
LINE
5
47
100
AcDbEntity
8
0
100
AcDbLine
10
175.0000000000000000
20
0.0000000000000000
30
0.0000000000000000
11
175.0000000000000000
21
-150.0000000000000000
31
0.0000000000000000
0
LINE
5
48
100
AcDbEntity
8
0
100
AcDbLine
10
175.0000000000000000
20
0.0000000000000000
30
0.0000000000000000
11
175.0000000000000000
21
0.0000000000000000
31
0.0000000000000000
0
LINE
5
49
100
AcDbEntity
8
0
100
AcDbLine
10
200.0000000000000000
20
-50.0000000000000000
30
0.0000000000000000
11
200.0000000000000000
21
-54.0000000000000000
31
0.0000000000000000
0
LINE
5
4A
100
AcDbEntity
8
0
100
AcDbLine
10
200.0000000000000000
20
-50.0000000000000000
30
0.0000000000000000
11
200.0000000000000000
21
-54.0000000000000000
31
0.0000000000000000
0
LINE
5
4B
100
AcDbEntity
8
0
100
AcDbLine
10
200.0000000000000000
20
-54.0000000000000000
30
0.0000000000000000
11
265.0000000000000000
21
-54.0000000000000000
31
0.0000000000000000
0
LINE
5
4C
100
AcDbEntity
8
0
100
AcDbLine
10
295.0000000000000000
20
-54.0000000000000000
30
0.0000000000000000
11
375.0000000000000000
21
-54.0000000000000000
31
0.0000000000000000
0
TEXT
5
4D
100
AcDbEntity
8
0
100
AcDbText
10
205.0000000000000000
20
-50.0000000000000000
30
0.0000000000000000
40
2.0000000000000000
50
0.0000000000000000
41
1.0000000000000000
51
0.0000000000000000
1

7
Standard
100
AcDbText
0
TEXT
5
4E
100
AcDbEntity
8
0
100
AcDbText
10
210.0000000000000000
20
-53.0000000000000000
30
0.0000000000000000
40
2.0000000000000000
50
0.0000000000000000
41
1.0000000000000000
51
0.0000000000000000
1
0.40
7
Standard
100
AcDbText
0
TEXT
5
4F
100
AcDbEntity
8
0
100
AcDbText
10
220.0000000000000000
20
-53.0000000000000000
30
0.0000000000000000
40
2.0000000000000000
50
0.0000000000000000
41
1.0000000000000000
51
0.0000000000000000
1
0.40
7
Standard
100
AcDbText
0
TEXT
5
50
100
AcDbEntity
8
0
100
AcDbText
10
230.0000000000000000
20
-53.0000000000000000
30
0.0000000000000000
40
2.0000000000000000
50
0.0000000000000000
41
1.0000000000000000
51
0.0000000000000000
1
74.10
7
Standard
100
AcDbText
0
TEXT
5
51
100
AcDbEntity
8
0
100
AcDbText
10
285.0000000000000000
20
-55.0000000000000000
30
0.0000000000000000
40
2.0000000000000000
50
0.0000000000000000
41
1.0000000000000000
51
0.0000000000000000
1

7
Standard
100
AcDbText
0
TEXT
5
52
100
AcDbEntity
8
0
100
AcDbText
10
300.0000000000000000
20
-55.0000000000000000
30
0.0000000000000000
40
2.0000000000000000
50
0.0000000000000000
41
1.0000000000000000
51
0.0000000000000000
1
нс
7
Standard
100
AcDbText
0
TEXT
5
53
100
AcDbEntity
8
0
100
AcDbText
10
310.0000000000000000
20
-55.0000000000000000
30
0.0000000000000000
40
2.0000000000000000
50
0.0000000000000000
41
1.0000000000000000
51
0.0000000000000000
1

7
Standard
100
AcDbText
0
LINE
5
54
100
AcDbEntity
8
0
100
AcDbLine
10
200.0000000000000000
20
-54.0000000000000000
30
0.0000000000000000
11
200.0000000000000000
21
-150.0000000000000000
31
0.0000000000000000
0
LINE
5
55
100
AcDbEntity
8
0
100
AcDbLine
10
200.0000000000000000
20
-54.0000000000000000
30
0.0000000000000000
11
200.0000000000000000
21
-150.0000000000000000
31
0.0000000000000000
0
LINE
5
56
100
AcDbEntity
8
0
100
AcDbLine
10
200.0000000000000000
20
-150.0000000000000000
30
0.0000000000000000
11
265.0000000000000000
21
-150.0000000000000000
31
0.0000000000000000
0
LINE
5
57
100
AcDbEntity
8
0
100
AcDbLine
10
295.0000000000000000
20
-150.0000000000000000
30
0.0000000000000000
11
375.0000000000000000
21
-150.0000000000000000
31
0.0000000000000000
0
TEXT
5
58
100
AcDbEntity
8
0
100
AcDbText
10
205.0000000000000000
20
-54.0000000000000000
30
0.0000000000000000
40
2.0000000000000000
50
0.0000000000000000
41
1.0000000000000000
51
0.0000000000000000
1

7
Standard
100
AcDbText
0
TEXT
5
59
100
AcDbEntity
8
0
100
AcDbText
10
210.0000000000000000
20
-149.0000000000000000
30
0.0000000000000000
40
2.0000000000000000
50
0.0000000000000000
41
1.0000000000000000
51
0.0000000000000000
1
9.60
7
Standard
100
AcDbText
0
TEXT
5
5A
100
AcDbEntity
8
0
100
AcDbText
10
220.0000000000000000
20
-149.0000000000000000
30
0.0000000000000000
40
2.0000000000000000
50
0.0000000000000000
41
1.0000000000000000
51
0.0000000000000000
1
10.00
7
Standard
100
AcDbText
0
TEXT
5
5B
100
AcDbEntity
8
0
100
AcDbText
10
230.0000000000000000
20
-149.0000000000000000
30
0.0000000000000000
40
2.0000000000000000
50
0.0000000000000000
41
1.0000000000000000
51
0.0000000000000000
1
64.10
7
Standard
100
AcDbText
0
TEXT
5
5C
100
AcDbEntity
8
0
100
AcDbText
10
285.0000000000000000
20
-59.0000000000000000
30
0.0000000000000000
40
2.0000000000000000
50
0.0000000000000000
41
1.0000000000000000
51
0.0000000000000000
1

7
Standard
100
AcDbText
0
TEXT
5
5D
100
AcDbEntity
8
0
100
AcDbText
10
300.0000000000000000
20
-59.0000000000000000
30
0.0000000000000000
40
2.0000000000000000
50
0.0000000000000000
41
1.0000000000000000
51
0.0000000000000000
1
2а
7
Standard
100
AcDbText
0
TEXT
5
5E
100
AcDbEntity
8
0
100
AcDbText
10
310.0000000000000000
20
-59.0000000000000000
30
0.0000000000000000
40
2.0000000000000000
50
0.0000000000000000
41
1.0000000000000000
51
0.0000000000000000
1
Суглинок коричневый и светло-коричневый. В интервале 2,8-3,0 м прослой песка мелкого водонасыщенного.
7
Standard
100
AcDbText
0
LINE
5
5F
100
AcDbEntity
8
0
100
AcDbLine
10
200.0000000000000000
20
0.0000000000000000
30
0.0000000000000000
11
375.0000000000000000
21
0.0000000000000000
31
0.0000000000000000
0
LINE
5
60
100
AcDbEntity
8
0
100
AcDbLine
10
200.0000000000000000
20
-50.0000000000000000
30
0.0000000000000000
11
375.0000000000000000
21
-50.0000000000000000
31
0.0000000000000000
0
LINE
5
61
100
AcDbEntity
8
0
100
AcDbLine
10
200.0000000000000000
20
-150.0000000000000000
30
0.0000000000000000
11
375.0000000000000000
21
-150.0000000000000000
31
0.0000000000000000
0
TEXT
5
62
100
AcDbEntity
8
0
100
AcDbText
10
230.0000000000000000
20
-45.0000000000000000
30
0.0000000000000000
40
2.0000000000000000
50
90.0000000000000000
41
1.0000000000000000
51
0.0000000000000000
1
Геоиндекс
7
Standard
100
AcDbText
0
LINE
5
63
100
AcDbEntity
8
0
100
AcDbLine
10
225.0000000000000000
20
0.0000000000000000
30
0.0000000000000000
11
225.0000000000000000
21
-150.0000000000000000
31
0.0000000000000000
0
TEXT
5
64
100
AcDbEntity
8
0
100
AcDbText
10
245.0000000000000000
20
-45.0000000000000000
30
0.0000000000000000
40
2.0000000000000000
50
90.0000000000000000
41
1.0000000000000000
51
0.0000000000000000
1
Мощность, м
7
Standard
100
AcDbText
0
LINE
5
65
100
AcDbEntity
8
0
100
AcDbLine
10
240.0000000000000000
20
0.0000000000000000
30
0.0000000000000000
11
240.0000000000000000
21
-150.0000000000000000
31
0.0000000000000000
0
TEXT
5
66
100
AcDbEntity
8
0
100
AcDbText
10
260.0000000000000000
20
-45.0000000000000000
30
0.0000000000000000
40
2.0000000000000000
50
90.0000000000000000
41
1.0000000000000000
51
0.0000000000000000
1
Глубина, м
7
Standard
100
AcDbText
0
LINE
5
67
100
AcDbEntity
8
0
100
AcDbLine
10
255.0000000000000000
20
0.0000000000000000
30
0.0000000000000000
11
255.0000000000000000
21
-150.0000000000000000
31
0.0000000000000000
0
TEXT
5
68
100
AcDbEntity
8
0
100
AcDbText
10
270.0000000000000000
20
-45.0000000000000000
30
0.0000000000000000
40
2.0000000000000000
50
90.0000000000000000
41
1.0000000000000000
51
0.0000000000000000
1
Абс. отметка, м
7
Standard
100
AcDbText
0
LINE
5
69
100
AcDbEntity
8
0
100
AcDbLine
10
265.0000000000000000
20
0.0000000000000000
30
0.0000000000000000
11
265.0000000000000000
21
-150.0000000000000000
31
0.0000000000000000
0
TEXT
5
6A
100
AcDbEntity
8
0
100
AcDbText
10
340.0000000000000000
20
-45.0000000000000000
30
0.0000000000000000
40
2.0000000000000000
50
90.0000000000000000
41
1.0000000000000000
51
0.0000000000000000
1
Геолого-литологический разрез
7
Standard
100
AcDbText
0
LINE
5
6B
100
AcDbEntity
8
0
100
AcDbLine
10
335.0000000000000000
20
0.0000000000000000
30
0.0000000000000000
11
335.0000000000000000
21
-150.0000000000000000
31
0.0000000000000000
0
LINE
5
6C
100
AcDbEntity
8
0
100
AcDbLine
10
335.0000000000000000
20
0.0000000000000000
30
0.0000000000000000
11
335.0000000000000000
21
0.0000000000000000
31
0.0000000000000000
0
ENDSEC
0
SECTION
2
OBJECTS
0
DICTIONARY
5
6D
100
AcDbDictionary
281
1
3
ACAD_GROUP
350
72
3
ACAD_PLOTSTYLENAME
350
70
0
ACDBDICTIONARYWDFLT
5
70
102
{ACAD_REACTORS
330
6D
102
}
330
6D
100
AcDbDictionary
281
1
3
Normal
350
71
100
AcDbDictionaryWithDefault
340
71
0
ACDBPLACEHOLDER
5
71
102
{ACAD_REACTORS
330
70
102
}
330
70
0
DICTIONARY
5
72
100
AcDbDictionary
281
1
0
ENDSEC
0
EOF
