0
SECTION
2
HEADER
9
$ACADVER
1
AC1015
9
$INSBASE
10
0.0000000000000000
20
0.0000000000000000
30
0.0000000000000000
9
$INSUNITS
70
0
9
$LUNITS
70
2
9
$EXTMIN
10
0.0000000000000000
20
0.0000000000000000
30
0.0000000000000000
9
$EXTMAX
10
0.0000000000000000
20
0.0000000000000000
30
0.0000000000000000
9
$LTSCALE
40
1.0000000000000000
9
$HANDSEED
5
53
0
ENDSEC
0
SECTION
2
CLASSES
0
ENDSEC
0
SECTION
2
TABLES
0
TABLE
2
VPORT
5
1
100
AcDbSymbolTable
70
0
0
ENDTAB
0
TABLE
2
LTYPE
5
2
100
AcDbSymbolTable
70
5
0
LTYPE
5
3
330
0
100
AcDbSymbolTableRecord
100
AcDbLinetypeTableRecord
2
ByLayer
70
0
3

72
65
73
0
40
0.0000000000000000
0
LTYPE
5
4
330
0
100
AcDbSymbolTableRecord
100
AcDbLinetypeTableRecord
2
ByBlock
70
0
3

72
65
73
0
40
0.0000000000000000
0
LTYPE
5
5
330
0
100
AcDbSymbolTableRecord
100
AcDbLinetypeTableRecord
2
Continuous
70
0
3
Solid Line
72
65
73
0
40
0.0000000000000000
0
LTYPE
5
6
330
0
100
AcDbSymbolTableRecord
100
AcDbLinetypeTableRecord
2
HIDDEN
70
0
3
Hidden __ __ __ __ __ __ __ __ __ __ __ __ __ _
72
65
73
2
40
0.3750000000000000
49
0.2500000000000000
74
0
49
-0.1250000000000000
74
0
0
LTYPE
5
7
330
0
100
AcDbSymbolTableRecord
100
AcDbLinetypeTableRecord
2
DASHDOT
70
0
3
Dash dot __ . __ . __ . __ . __ . __ . __ . __
72
65
73
4
40
1.0000000000000000
49
0.5000000000000000
74
0
49
-0.2500000000000000
74
0
49
0.0000000000000000
74
0
49
-0.2500000000000000
74
0
0
ENDTAB
0
TABLE
2
LAYER
5
8
100
AcDbSymbolTable
70
1
0
LAYER
5
9
330
0
100
AcDbSymbolTableRecord
100
AcDbLayerTableRecord
2
0
70
0
62
7
6
Continuous
370
-3
390
0
0
ENDTAB
0
TABLE
2
STYLE
5
A
100
AcDbSymbolTable
70
1
0
STYLE
5
B
330
0
100
AcDbSymbolTableRecord
100
AcDbTextStyleTableRecord
2
Standard
70
0
40
0.0000000000000000
41
1.0000000000000000
50
0.0000000000000000
71
0
42
100.0000000000000000
3
arial.ttf
4

0
ENDTAB
0
TABLE
2
VIEW
5
C
100
AcDbSymbolTable
70
0
0
ENDTAB
0
TABLE
2
UCS
5
D
100
AcDbSymbolTable
70
0
0
ENDTAB
0
TABLE
2
APPID
5
E
100
AcDbSymbolTable
70
1
0
APPID
5
F
330
E
100
AcDbSymbolTableRecord
100
AcDbRegAppTableRecord
2
ACAD
70
0
0
ENDTAB
0
TABLE
2
DIMSTYLE
5
10
100
AcDbSymbolTable
70
0
100
AcDbDimStyleTable
71
0
0
ENDTAB
0
TABLE
2
BLOCK_RECORD
5
11
100
AcDbSymbolTable
70
3
0
BLOCK_RECORD
5
12
330
11
100
AcDbSymbolTableRecord
100
AcDbBlockTableRecord
2
*Model_Space
70
0
280
1
281
0
0
BLOCK_RECORD
5
13
330
11
100
AcDbSymbolTableRecord
100
AcDbBlockTableRecord
2
*Paper_Space
70
0
280
1
281
0
0
BLOCK_RECORD
5
14
330
11
100
AcDbSymbolTableRecord
100
AcDbBlockTableRecord
2
*Paper_Space0
70
0
280
1
281
0
0
ENDTAB
0
ENDSEC
0
SECTION
2
BLOCKS
0
BLOCK
5
15
100
AcDbEntity
8
0
100
AcDbBlockBegin
2
*Model_Space
70
0
10
0.0000000000000000
20
0.0000000000000000
30
0.0000000000000000
3
*Model_Space
1

0
ENDBLK
5
16
100
AcDbEntity
8
0
100
AcDbBlockEnd
0
BLOCK
5
17
100
AcDbEntity
8
0
100
AcDbBlockBegin
2
*Paper_Space
70
0
10
0.0000000000000000
20
0.0000000000000000
30
0.0000000000000000
3
*Paper_Space
1

0
ENDBLK
5
18
100
AcDbEntity
8
0
100
AcDbBlockEnd
0
BLOCK
5
19
100
AcDbEntity
8
0
100
AcDbBlockBegin
2
*Paper_Space0
70
0
10
0.0000000000000000
20
0.0000000000000000
30
0.0000000000000000
3
*Paper_Space0
1

0
ENDBLK
5
1A
100
AcDbEntity
8
0
100
AcDbBlockEnd
0
ENDSEC
0
SECTION
2
ENTITIES
0
LINE
5
1B
100
AcDbEntity
8
ramka_plan
100
AcDbLine
10
30.0000000000000000
20
60.0000000000000000
30
0.0000000000000000
11
30.0000000000000000
21
35.0000000000000000
31
0.0000000000000000
0
LINE
5
1C
100
AcDbEntity
8
ramka_plan
100
AcDbLine
10
50.0000000000000000
20
60.0000000000000000
30
0.0000000000000000
11
50.0000000000000000
21
35.0000000000000000
31
0.0000000000000000
0
TEXT
5
1D
100
AcDbEntity
8
ramka_plan
100
AcDbText
10
12.0000000000000000
20
66.0000000000000000
30
0.0000000000000000
40
2.3999999999999990
50
90.0000000000000000
41
0.0000000000000000
51
0.0000000000000000
1
Взам. инв. N
7
Standard
100
AcDbText
0
TEXT
5
1E
100
AcDbEntity
8
ramka_plan
100
AcDbText
10
12.0000000000000000
20
6.0000000000000000
30
0.0000000000000000
40
2.3999999999999990
50
90.0000000000000000
41
0.0000000000000000
51
0.0000000000000000
1
Инв. N подл.
7
Standard
100
AcDbText
0
TEXT
5
1F
100
AcDbEntity
8
ramka_plan
100
AcDbText
10
12.0000000000000000
20
31.0000000000000000
30
0.0000000000000000
40
2.3999999999999990
50
90.0000000000000000
41
0.0000000000000000
51
0.0000000000000000
1
Подпись и дата
7
Standard
100
AcDbText
0
TEXT
5
20
100
AcDbEntity
8
ramka_plan
100
AcDbText
10
4.0000000000000000
20
91.0000000000000000
30
0.0000000000000000
40
2.3999999999999990
50
90.0000000000000000
41
0.0000000000000000
51
0.0000000000000000
1
Согласовано
7
Standard
100
AcDbText
0
LWPOLYLINE
5
21
100
AcDbEntity
8
ramka_plan
100
AcDbPolyline
90
4
70
0
10
20.0000000000000000
20
155.0000000000000000
10
0.0000000000000000
20
155.0000000000000000
10
0.0000000000000000
20
90.0000000000000000
10
8.0000000000000000
20
90.0000000000000000
0
LWPOLYLINE
5
22
100
AcDbEntity
8
ramka_plan
100
AcDbPolyline
90
4
70
0
10
20.0000000000000000
20
5.0000000000000000
10
8.0000000000000000
20
5.0000000000000000
10
8.0000000000000000
20
90.0000000000000000
10
20.0000000000000000
20
90.0000000000000000
0
LWPOLYLINE
5
23
100
AcDbEntity
8
ramka_plan
100
AcDbPolyline
90
4
70
0
10
210.0000000000000000
20
0.0000000000000000
10
0.0000000000000000
20
0.0000000000000000
10
0.0000000000000000
20
297.0000000000000000
10
210.0000000000000000
20
297.0000000000000000
0
LWPOLYLINE
5
24
100
AcDbEntity
8
ramka_plan
100
AcDbPolyline
90
4
70
0
10
20.0000000000000000
20
5.0000000000000000
10
205.0000000000000000
20
5.0000000000000000
10
205.0000000000000000
20
292.0000000000000000
10
20.0000000000000000
20
292.0000000000000000
0
LINE
5
25
100
AcDbEntity
8
ramka_plan
100
AcDbLine
10
20.0000000000000000
20
55.0000000000000000
30
0.0000000000000000
11
85.0000000000000000
21
55.0000000000000000
31
0.0000000000000000
0
LINE
5
26
100
AcDbEntity
8
ramka_plan
100
AcDbLine
10
20.0000000000000000
20
50.0000000000000000
30
0.0000000000000000
11
85.0000000000000000
21
50.0000000000000000
31
0.0000000000000000
0
LINE
5
27
100
AcDbEntity
8
ramka_plan
100
AcDbLine
10
20.0000000000000000
20
45.0000000000000000
30
0.0000000000000000
11
85.0000000000000000
21
45.0000000000000000
31
0.0000000000000000
0
LINE
5
28
100
AcDbEntity
8
ramka_plan
100
AcDbLine
10
20.0000000000000000
20
30.0000000000000000
30
0.0000000000000000
11
85.0000000000000000
21
30.0000000000000000
31
0.0000000000000000
0
LINE
5
29
100
AcDbEntity
8
ramka_plan
100
AcDbLine
10
20.0000000000000000
20
25.0000000000000000
30
0.0000000000000000
11
85.0000000000000000
21
25.0000000000000000
31
0.0000000000000000
0
LINE
5
2A
100
AcDbEntity
8
ramka_plan
100
AcDbLine
10
20.0000000000000000
20
15.0000000000000000
30
0.0000000000000000
11
85.0000000000000000
21
15.0000000000000000
31
0.0000000000000000
0
LINE
5
2B
100
AcDbEntity
8
ramka_plan
100
AcDbLine
10
20.0000000000000000
20
10.0000000000000000
30
0.0000000000000000
11
85.0000000000000000
21
10.0000000000000000
31
0.0000000000000000
0
LWPOLYLINE
5
2C
100
AcDbEntity
8
ramka_plan
100
AcDbPolyline
90
3
70
0
10
205.0000000000000000
20
60.0000000000000000
10
20.0000000000000000
20
60.0000000000000000
10
20.0000000000000000
20
5.0000000000000000
0
LINE
5
2D
100
AcDbEntity
8
ramka_plan
100
AcDbLine
10
20.0000000000000000
20
20.0000000000000000
30
0.0000000000000000
11
85.0000000000000000
21
20.0000000000000000
31
0.0000000000000000
0
LWPOLYLINE
5
2E
100
AcDbEntity
8
ramka_plan
100
AcDbPolyline
90
2
70
0
10
13.0000000000000000
20
90.0000000000000000
10
13.0000000000000000
20
5.0000000000000000
0
LWPOLYLINE
5
2F
100
AcDbEntity
8
ramka_plan
100
AcDbPolyline
90
2
70
0
10
8.0000000000000000
20
30.0000000000000000
10
20.0000000000000000
20
30.0000000000000000
0
LWPOLYLINE
5
30
100
AcDbEntity
8
ramka_plan
100
AcDbPolyline
90
2
70
0
10
8.0000000000000000
20
65.0000000000000000
10
20.0000000000000000
20
65.0000000000000000
0
LWPOLYLINE
5
31
100
AcDbEntity
8
ramka_plan
100
AcDbPolyline
90
2
70
0
10
10.0000000000000000
20
155.0000000000000000
10
10.0000000000000000
20
90.0000000000000000
0
LWPOLYLINE
5
32
100
AcDbEntity
8
ramka_plan
100
AcDbPolyline
90
2
70
0
10
15.0000000000000000
20
155.0000000000000000
10
15.0000000000000000
20
90.0000000000000000
0
LWPOLYLINE
5
33
100
AcDbEntity
8
ramka_plan
100
AcDbPolyline
90
2
70
0
10
5.0000000000000000
20
110.0000000000000000
10
20.0000000000000000
20
110.0000000000000000
0
LWPOLYLINE
5
34
100
AcDbEntity
8
ramka_plan
100
AcDbPolyline
90
2
70
0
10
5.0000000000000000
20
130.0000000000000000
10
20.0000000000000000
20
130.0000000000000000
0
LWPOLYLINE
5
35
100
AcDbEntity
8
ramka_plan
100
AcDbPolyline
90
2
70
0
10
5.0000000000000000
20
145.0000000000000000
10
20.0000000000000000
20
145.0000000000000000
0
LWPOLYLINE
5
36
100
AcDbEntity
8
ramka_plan
100
AcDbPolyline
90
2
70
0
10
5.0000000000000000
20
155.0000000000000000
10
5.0000000000000000
20
90.0000000000000000
0
LWPOLYLINE
5
37
100
AcDbEntity
8
ramka_plan
100
AcDbPolyline
90
2
70
0
10
20.0000000000000000
20
40.0000000000000000
10
85.0000000000000000
20
40.0000000000000000
0
LWPOLYLINE
5
38
100
AcDbEntity
8
ramka_plan
100
AcDbPolyline
90
2
70
0
10
20.0000000000000000
20
35.0000000000000000
10
205.0000000000000000
20
35.0000000000000000
0
LWPOLYLINE
5
39
100
AcDbEntity
8
ramka_plan
100
AcDbPolyline
90
2
70
0
10
40.0000000000000000
20
60.0000000000000000
10
40.0000000000000000
20
5.0000000000000000
0
LWPOLYLINE
5
3A
100
AcDbEntity
8
ramka_plan
100
AcDbPolyline
90
2
70
0
10
60.0000000000000000
20
60.0000000000000000
10
60.0000000000000000
20
5.0000000000000000
0
LWPOLYLINE
5
3B
100
AcDbEntity
8
ramka_plan
100
AcDbPolyline
90
2
70
0
10
75.0000000000000000
20
60.0000000000000000
10
75.0000000000000000
20
5.0000000000000000
0
LWPOLYLINE
5
3C
100
AcDbEntity
8
ramka_plan
100
AcDbPolyline
90
2
70
0
10
85.0000000000000000
20
60.0000000000000000
10
85.0000000000000000
20
5.0000000000000000
0
LWPOLYLINE
5
3D
100
AcDbEntity
8
ramka_plan
100
AcDbPolyline
90
2
70
0
10
85.0000000000000000
20
50.0000000000000000
10
205.0000000000000000
20
50.0000000000000000
0
LWPOLYLINE
5
3E
100
AcDbEntity
8
ramka_plan
100
AcDbPolyline
90
2
70
0
10
85.0000000000000000
20
20.0000000000000000
10
205.0000000000000000
20
20.0000000000000000
0
LWPOLYLINE
5
3F
100
AcDbEntity
8
ramka_plan
100
AcDbPolyline
90
2
70
0
10
155.0000000000000000
20
35.0000000000000000
10
155.0000000000000000
20
5.0000000000000000
0
LWPOLYLINE
5
40
100
AcDbEntity
8
ramka_plan
100
AcDbPolyline
90
2
70
0
10
155.0000000000000000
20
30.0000000000000000
10
205.0000000000000000
20
30.0000000000000000
0
LWPOLYLINE
5
41
100
AcDbEntity
8
ramka_plan
100
AcDbPolyline
90
2
70
0
10
170.0000000000000000
20
20.0000000000000000
10
170.0000000000000000
20
35.0000000000000000
0
LWPOLYLINE
5
42
100
AcDbEntity
8
ramka_plan
100
AcDbPolyline
90
2
70
0
10
185.0000000000000000
20
20.0000000000000000
10
185.0000000000000000
20
35.0000000000000000
0
TEXT
5
43
100
AcDbEntity
8
ramka_plan
100
AcDbText
10
76.0000000000000000
20
36.0000000000001705
30
0.0000000000000000
40
2.5000000000000000
50
0.0271451887614808
41
0.0000000000000000
51
0.0000000000000000
1
Дата
7
Standard
72
5
100
AcDbText
0
TEXT
5
44
100
AcDbEntity
8
ramka_plan
100
AcDbText
10
50.5296396820194715
20
36.0000000000001705
30
0.0000000000000000
40
2.5000000000000000
50
0.0000000000000000
41
0.0000000000000000
51
0.0000000000000000
1
Nдок.
7
Standard
100
AcDbText
0
TEXT
5
45
100
AcDbEntity
8
ramka_plan
100
AcDbText
10
30.4734370402857202
20
35.9135271541225123
30
0.0000000000000000
40
2.5000000000000000
50
0.6062719829381015
41
0.0000000000000000
51
0.0000000000000000
1
Кол.уч.
7
Standard
72
5
100
AcDbText
0
TEXT
5
46
100
AcDbEntity
8
ramka_plan
100
AcDbText
10
41.1691056127455965
20
35.9332389529141096
30
0.0000000000000000
40
2.5000000000000000
50
0.0000000000000000
41
0.0000000000000000
51
0.0000000000000000
1
Лист
7
Standard
100
AcDbText
0
TEXT
5
47
100
AcDbEntity
8
ramka_plan
100
AcDbText
10
21.0000000000000000
20
36.0000000000001705
30
0.0000000000000000
40
2.5000000000000000
50
0.0000000000000000
41
0.0000000000000000
51
0.0000000000000000
1
Изм.
7
Standard
100
AcDbText
0
TEXT
5
48
100
AcDbEntity
8
ramka_plan
100
AcDbText
10
60.6565511644039219
20
35.9967934979852089
30
0.0000000000000000
40
2.5000000000000000
50
0.0000000000000000
41
0.0000000000000000
51
0.0000000000000000
1
Подпись
7
Standard
100
AcDbText
0
TEXT
5
49
100
AcDbEntity
8
ramka_plan
100
AcDbText
10
156.3767441011077040
20
31.4736575367513183
30
0.0000000000000000
40
2.5000000000000000
50
0.0000000000000000
41
0.0000000000000000
51
0.0000000000000000
1
Стадия
7
Standard
100
AcDbText
0
TEXT
5
4A
100
AcDbEntity
8
ramka_plan
100
AcDbText
10
173.2749456186938914
20
31.4736575367513183
30
0.0000000000000000
40
2.5000000000000000
50
0.0000000000000000
41
0.0000000000000000
51
0.0000000000000000
1
Лист
7
Standard
100
AcDbText
0
TEXT
5
4B
100
AcDbEntity
8
ramka_plan
100
AcDbText
10
188.8103110289229960
20
31.4736575367513183
30
0.0000000000000000
40
2.5000000000000000
50
0.0000000000000000
41
0.0000000000000000
51
0.0000000000000000
1
Листов
7
Standard
100
AcDbText
0
LWPOLYLINE
5
4C
100
AcDbEntity
8
0
100
AcDbPolyline
90
4
70
1
10
0.0000000000000000
20
297.0000000000000000
10
0.0000000000000000
20
0.0000000000000000
10
210.0000000000000000
20
0.0000000000000000
10
210.0000000000000000
20
297.0000000000000000
0
ENDSEC
0
SECTION
2
OBJECTS
0
DICTIONARY
5
4D
100
AcDbDictionary
281
1
3
ACAD_GROUP
350
52
3
ACAD_PLOTSTYLENAME
350
50
0
ACDBDICTIONARYWDFLT
5
50
102
{ACAD_REACTORS
330
4D
102
}
330
4D
100
AcDbDictionary
281
1
3
Normal
350
51
100
AcDbDictionaryWithDefault
340
51
0
ACDBPLACEHOLDER
5
51
102
{ACAD_REACTORS
330
50
102
}
330
50
0
DICTIONARY
5
52
100
AcDbDictionary
281
1
0
ENDSEC
0
EOF
